{"title":"Keeping Mum (2005) DVDRip XviD AC3 peaSoup","uid":8852447,"size":1163956054,"categoryP":"video","categoryS":"movies","magnet":"?xt=urn:btih:ad17d4ab5200546ddc79996fb292c227aebef236&amp;dn=Keeping+Mum+%282005%29+DVDRip+XviD+AC3+peaSoup&amp;tr=udp%3A%2F%2Ftracker.openbittorrent.com%3A80&amp;tr=udp%3A%2F%2Fopen.demonii.com%3A1337&amp;tr=udp%3A%2F%2Ftracker.coppersurfer.tk%3A6969&amp;tr=udp%3A%2F%2Fexodus.desync.com%3A6969","seeders":4,"leechers":0,"uploader":"peaSoup","files":-1,"time":1377569078,"description":"Storyline\n\nWalter Goodfellow, the vicar for the small English country parish of Little Wallop, has allowed his marriage to Gloria go stale, and he is so detached from his family that he has not taken notice that his 17-year-old daughter Holly is going through a succession of relationships with unsuitable boyfriends, and his son Petey fears going to school owing to being bullied. Out of desperation for affection, Gloria begins to fall for the advances of Lance, an American golf pro who is giving her &quot;private&quot; lessons. The problems upsetting the family start to fade away after Grace Hawkins, the new housekeeper, arrives and starts tending to matters as an older, and rather darkly mysterious version of Mary Poppins.                                   &lt;a href=&quot; http://imageshack.us/a/img12/8697/kv8c.jpg&quot; rel=&quot;nofollow&quot; target=&quot;_NEW&quot;&gt; http://imageshack.us/a/img12/8697/kv8c.jpg&lt;/a&gt;                                          &lt;a href=&quot; http://imageshack.us/a/img825/1889/07vc.jpg&quot; rel=&quot;nofollow&quot; target=&quot;_NEW&quot;&gt; http://imageshack.us/a/img825/1889/07vc.jpg&lt;/a&gt;                                         &lt;a href=&quot; http://imageshack.us/a/img692/7249/vci5.jpg&quot; rel=&quot;nofollow&quot; target=&quot;_NEW&quot;&gt; http://imageshack.us/a/img692/7249/vci5.jpg&lt;/a&gt;                                         &lt;a href=&quot; http://imageshack.us/a/img850/4531/2yux.jpg&quot; rel=&quot;nofollow&quot; target=&quot;_NEW&quot;&gt; http://imageshack.us/a/img850/4531/2yux.jpg&lt;/a&gt;                                         &lt;a href=&quot; http://imageshack.us/a/img42/3060/r8r9.jpg&quot; rel=&quot;nofollow&quot; target=&quot;_NEW&quot;&gt; http://imageshack.us/a/img42/3060/r8r9.jpg&lt;/a&gt;                                           Format                                   : AVI\nFormat/Info                              : Audio Video Interleave\nFormat profile                           : OpenDML\nFile size                                : 1.08 GiB\nDuration                                 : 1h 38mn\nOverall bit rate                         : 1 569 Kbps\nMovie name                               : Keeping Mum (2005) DVDRip XviD AC3 peaSoup\nWriting application                      : Lavf53.21.0\nOriginal source form/Name                : KEEPING_MUM\n\nVideo\nID                                       : 0\nFormat                                   : MPEG-4 Visual\nFormat profile                           : Advanced Simple@L5\nFormat settings, BVOP                    : 2\nFormat settings, QPel                    : No\nFormat settings, GMC                     : No warppoints\nFormat settings, Matrix                  : Default (H.263)\nMuxing mode                              : Packed bitstream\nCodec ID                                 : XVID\nCodec ID/Hint                            : XviD\nDuration                                 : 1h 38mn\nBit rate                                 : 1 107 Kbps\nWidth                                    : 720 pixels\nHeight                                   : 308 pixels\nDisplay aspect ratio                     : 2.35:1\nFrame rate                               : 25.000 fps\nColor space                              : YUV\nChroma subsampling                       : 4:2:0\nBit depth                                : 8 bits\nScan type                                : Progressive\nCompression mode                         : Lossy\nBits/(Pixel*Frame)                       : 0.200\nStream size                              : 783 MiB (71%)\nWriting library                          : XviD 1.2.1 (UTC 2008-12-04)\n\nAudio\nID                                       : 1\nFormat                                   : AC-3\nFormat/Info                              : Audio Coding 3\nMode extension                           : CM (complete main)\nFormat settings, Endianness              : Big\nCodec ID                                 : 2000\nDuration                                 : 1h 38mn\nBit rate mode                            : Constant\nBit rate                                 : 448 Kbps\nChannel(s)                               : 6 channels\nChannel positions                        : Front: L C R, Side: L R, LFE\nSampling rate                            : 48.0 KHz\nBit depth                                : 16 bits\nCompression mode                         : Lossy\nStream size                              : 317 MiB (29%)\nAlignment                                : Aligned on interleaves\nInterleave, duration                     : 32 ms (0.80 video frame)\n\n","torrent":{"xt":"urn:btih:ad17d4ab5200546ddc79996fb292c227aebef236","amp;dn":"Keeping+Mum+%282005%29+DVDRip+XviD+AC3+peaSoup","amp;tr":["udp%3A%2F%2Ftracker.openbittorrent.com%3A80","udp%3A%2F%2Fopen.demonii.com%3A1337","udp%3A%2F%2Ftracker.coppersurfer.tk%3A6969","udp%3A%2F%2Fexodus.desync.com%3A6969"],"infoHash":"ad17d4ab5200546ddc79996fb292c227aebef236","infoHashBuffer":{"type":"Buffer","data":[173,23,212,171,82,0,84,109,220,121,153,111,178,146,194,39,174,190,242,54]},"announce":[],"urlList":[]}}